<?xml version="1.0" encoding="UTF-8" standalone="no"?>
<!-- Created with Inkscape (http://www.inkscape.org/) -->

<svg
   width="112mm"
   height="112mm"
   viewBox="0 0 112 112"
   version="1.1"
   id="svg5"
   xml:space="preserve"
   inkscape:version="1.2.2 (b0a8486541, 2022-12-01)"
   sodipodi:docname="Logo_versuche.svg"
   inkscape:export-filename="Logo_versuche.png"
   inkscape:export-xdpi="116.11441"
   inkscape:export-ydpi="116.11441"
   xmlns:inkscape="http://www.inkscape.org/namespaces/inkscape"
   xmlns:sodipodi="http://sodipodi.sourceforge.net/DTD/sodipodi-0.dtd"
   xmlns="http://www.w3.org/2000/svg"
   xmlns:svg="http://www.w3.org/2000/svg"><sodipodi:namedview
     id="namedview7"
     pagecolor="#ffffff"
     bordercolor="#666666"
     borderopacity="1.0"
     inkscape:showpageshadow="2"
     inkscape:pageopacity="0.0"
     inkscape:pagecheckerboard="0"
     inkscape:deskcolor="#d1d1d1"
     inkscape:document-units="mm"
     showgrid="false"
     inkscape:zoom="0.3005204"
     inkscape:cx="15100.473"
     inkscape:cy="7335.6086"
     inkscape:window-width="3840"
     inkscape:window-height="1008"
     inkscape:window-x="0"
     inkscape:window-y="0"
     inkscape:window-maximized="1"
     inkscape:current-layer="layer1"
     showguides="true"><sodipodi:guide
       position="-196.55757,-531.86248"
       orientation="1,0"
       id="guide16785"
       inkscape:locked="false" /><sodipodi:guide
       position="-110.20497,-523.91638"
       orientation="1,0"
       id="guide16787"
       inkscape:locked="false" /></sodipodi:namedview><defs
     id="defs2"><style
       id="style83745">.cls-1{fill-rule:evenodd;}</style><style
       id="style113731">.cls-1{fill-rule:evenodd;}</style></defs><g
     inkscape:label="Ebene 1"
     inkscape:groupmode="layer"
     id="layer1"
     transform="translate(-4474.5392,-1756.7021)"><g
       id="g40542"
       inkscape:export-filename="Kaderblick/final/png/kaderblick_ballmarker_appicon.png"
       inkscape:export-xdpi="116.11441"
       inkscape:export-ydpi="116.11441"><rect
         style="opacity:0.00100002;fill:#02b008;fill-opacity:1;stroke:none;stroke-width:3.51033;stroke-dasharray:none"
         id="rect26435-7-8-0-8-4-7-5-3-6-6-9-8-6-6"
         width="112"
         height="112"
         x="4127.5249"
         y="697.75562"
         inkscape:export-filename="g23468-2.png"
         inkscape:export-xdpi="7.27"
         inkscape:export-ydpi="7.27"
         transform="translate(347.01419,1058.9465)" /><path
         style="fill:#ffffff;fill-opacity:1;stroke:#000000;stroke-width:4;stroke-linecap:butt;stroke-linejoin:miter;stroke-dasharray:none;stroke-opacity:1"
         d="m 4142.7877,714.43326 41.6078,-14.4497 40.9115,14.6237 0.1741,44.0452 c -0.3709,22.5985 -23.3111,39.2654 -41.5208,48.7456 -33.5979,-17.1524 -42.1708,-36.5239 -42.3913,-49.9643 z"
         id="path8808-4-0-7-8-3-3-4-8-1-1-2-0-1-7"
         sodipodi:nodetypes="ccccccc"
         transform="translate(347.01419,1058.9465)" /><path
         style="fill:none;stroke:#000000;stroke-width:4;stroke-linecap:butt;stroke-linejoin:miter;stroke-dasharray:none;stroke-opacity:1"
         d="m 4142.2473,744.31106 h 83.3437"
         id="path10313-7-0-53-3-0-4-4-0-6-6-1-3-0-5"
         transform="translate(347.01419,1058.9465)" /><path
         style="fill:#b56a2d;fill-opacity:1;stroke-width:0.128452"
         id="path8688-45-47-5-2-3-0-9-0-7-8-2-4-6-3"
         sodipodi:type="arc"
         sodipodi:cx="4183.9072"
         sodipodi:cy="717.54993"
         sodipodi:rx="5.4643841"
         sodipodi:ry="5.2864027"
         sodipodi:start="0"
         sodipodi:end="6.281029"
         sodipodi:open="true"
         sodipodi:arc-type="chord"
         d="m 4189.3716,717.54993 a 5.4643841,5.2864027 0 0 1 -5.4614,5.2864 5.4643841,5.2864027 0 0 1 -5.4674,-5.2807 5.4643841,5.2864027 0 0 1 5.4556,-5.2921 5.4643841,5.2864027 0 0 1 5.4732,5.275 z"
         transform="translate(347.01419,1058.9465)" /><path
         style="fill:#b56a2d;fill-opacity:1;stroke-width:0.104987"
         id="path8688-4-2-6-97-20-0-2-6-5-1-0-5-0-3-5"
         sodipodi:type="arc"
         sodipodi:cx="4166.5044"
         sodipodi:cy="723.73914"
         sodipodi:rx="4.5536532"
         sodipodi:ry="4.2377353"
         sodipodi:start="0"
         sodipodi:end="6.281029"
         sodipodi:open="true"
         sodipodi:arc-type="chord"
         d="m 4171.058,723.73914 a 4.5536532,4.2377353 0 0 1 -4.5512,4.23773 4.5536532,4.2377353 0 0 1 -4.5561,-4.23317 4.5536532,4.2377353 0 0 1 4.5463,-4.24229 4.5536532,4.2377353 0 0 1 4.561,4.22859 z"
         transform="translate(347.01419,1058.9465)" /><path
         style="fill:#b56a2d;fill-opacity:1;stroke-width:0.105609"
         id="path8688-4-7-5-89-8-6-0-6-7-9-8-6-7-3-2-6"
         sodipodi:type="arc"
         sodipodi:cx="4201.3032"
         sodipodi:cy="723.78723"
         sodipodi:rx="4.4601092"
         sodipodi:ry="4.3780518"
         sodipodi:start="0"
         sodipodi:end="6.281029"
         sodipodi:open="true"
         sodipodi:arc-type="chord"
         d="m 4205.7633,723.78723 a 4.4601092,4.3780518 0 0 1 -4.4577,4.37805 4.4601092,4.3780518 0 0 1 -4.4625,-4.37333 4.4601092,4.3780518 0 0 1 4.4529,-4.38276 4.4601092,4.3780518 0 0 1 4.4673,4.3686 z"
         transform="translate(347.01419,1058.9465)" /><path
         id="path10367-43-6-3-6-2-3-3-9-8-6-3-91-0-2"
         style="fill:#b56a2d;fill-opacity:1;stroke-width:4.30101;stroke-dasharray:none"
         d="m 4166.5998,729.73936 a 7.5,3.8820899 0 0 0 -7.4828,3.8091 h -0.01 v 0.077 5.4389 h 15.0002 v -5.443 -0.01 -0.065 h -0.01 a 7.5,3.8820899 0 0 0 -7.5076,-3.8091 z"
         transform="translate(347.01419,1058.9465)" /><path
         id="path10367-4-0-8-8-1-2-8-0-1-0-0-5-9-6-9"
         style="fill:#b56a2d;fill-opacity:1;stroke-width:5.65071;stroke-dasharray:none"
         d="m 4184.0628,724.55416 a 10,5.0256577 0 0 0 -9.9818,4.9982 v 0 0.033 9.3684 h 20.0003 v -9.401 0 a 10,5.0256577 0 0 0 -10.0149,-4.9982 z"
         transform="translate(347.01419,1058.9465)" /><path
         id="path10367-5-7-79-3-0-2-6-9-8-7-9-0-6-1-1"
         style="fill:#b56a2d;fill-opacity:1;stroke-width:4.30101;stroke-dasharray:none"
         d="m 4201.522,729.75416 a 7.5,3.8820899 0 0 0 -7.4827,3.809 v 0 0.077 5.439 h 15.0001 v -5.4431 -0.01 -0.065 h -0.01 a 7.5,3.8820899 0 0 0 -7.5075,-3.8091 z"
         transform="translate(347.01419,1058.9465)" /><path
         style="fill:#b56a2d;fill-opacity:1;stroke:none;stroke-width:0.264583px;stroke-linecap:butt;stroke-linejoin:miter;stroke-opacity:1"
         d="m 4148.3327,749.53666 16.0734,-0.1323 c 1.7027,14.5867 9.3594,17.7354 17.661,19.6453 l -0.066,30.2286 c 0,0 -8.9959,-4.6302 -9.1943,-5.027 -0.1984,-0.3969 0.1323,-20.5714 0.1323,-20.5714 -6.8077,-4.1235 -14.1567,-7.2417 -23.4156,-6.813 -1.8609,-5.1113 -1.3116,-11.2099 -1.1907,-17.3302 z"
         id="path20055-8-0-79-57-4-7-6-2-8-0-1-9-5-2"
         sodipodi:nodetypes="ccccsccc"
         transform="translate(347.01419,1058.9465)" /><path
         style="fill:#b56a2d;fill-opacity:1;stroke:none;stroke-width:0.264583px;stroke-linecap:butt;stroke-linejoin:miter;stroke-opacity:1"
         d="m 4219.6266,749.50856 -16.0735,-0.1323 c -1.7026,14.5868 -9.3593,17.7355 -17.6609,19.6454 l 0.066,30.2286 c 0,0 8.9958,-4.6302 9.1943,-5.0271 0.1984,-0.3969 -0.1323,-20.5713 -0.1323,-20.5713 6.8077,-4.1235 14.1567,-7.2417 23.4156,-6.8131 1.8609,-5.1112 1.3116,-11.2098 1.1907,-17.3302 z"
         id="path20055-9-6-3-3-42-7-0-6-8-6-5-5-3-5-7"
         sodipodi:nodetypes="ccccsccc"
         transform="translate(347.01419,1058.9465)" /><path
         style="fill:#b56a2d;fill-opacity:1;stroke:none;stroke-width:0.264583px;stroke-linecap:butt;stroke-linejoin:miter;stroke-opacity:1"
         d="m 4150.9124,770.14106 c 6.2844,-0.1459 12.489,1.4353 18.6531,5.6885 v 15.875 c -6.8378,-5.2005 -16.525,-14.3492 -18.6531,-21.5635 z"
         id="path21800-8-33-7-0-9-8-0-7-6-8-8-38-4-0"
         sodipodi:nodetypes="cccc"
         transform="translate(347.01419,1058.9465)" /><path
         style="fill:#b56a2d;fill-opacity:1;stroke:none;stroke-width:0.264583px;stroke-linecap:butt;stroke-linejoin:miter;stroke-opacity:1"
         d="m 4217.2219,770.27126 c -6.2844,-0.1459 -12.489,1.4353 -18.6531,5.6886 v 15.875 c 6.8378,-5.2006 16.5249,-14.3492 18.6531,-21.5636 z"
         id="path21800-7-8-73-8-0-8-1-4-6-9-7-6-0-7-9"
         sodipodi:nodetypes="cccc"
         transform="translate(347.01419,1058.9465)" /><path
         style="fill:#ffffff;fill-opacity:1;stroke-width:3.96912;stroke-dasharray:none"
         id="path10311-4-2-7-3-5-9-5-8-6-0-7-56-6-3"
         sodipodi:type="arc"
         sodipodi:cx="4184.0015"
         sodipodi:cy="749.81726"
         sodipodi:rx="19"
         sodipodi:ry="19"
         sodipodi:start="0"
         sodipodi:end="6.281029"
         sodipodi:open="true"
         sodipodi:arc-type="chord"
         d="m 4203.0015,749.81726 a 19,19 0 0 1 -18.9898,19 19,19 0 0 1 -19.0102,-18.97951 19,19 0 0 1 18.9692,-19.02046 19,19 0 0 1 19.0307,18.959 z"
         transform="translate(347.01419,1058.9465)" /><path
         style="fill:#b56a2d;fill-opacity:1;stroke:none;stroke-width:4.15817;stroke-dasharray:none"
         id="path23528-4-7-3-3-2-2-2-8-5-4-1-64-5-6"
         sodipodi:type="arc"
         sodipodi:cx="4184.0015"
         sodipodi:cy="749.81726"
         sodipodi:rx="14"
         sodipodi:ry="14"
         sodipodi:start="0"
         sodipodi:end="6.281029"
         sodipodi:open="true"
         sodipodi:arc-type="chord"
         d="m 4198.0015,749.81726 a 14,14 0 0 1 -13.9925,14 14,14 0 0 1 -14.0075,-13.98491 14,14 0 0 1 13.9773,-14.01507 14,14 0 0 1 14.0226,13.96979 z"
         transform="translate(347.01419,1058.9465)" /><g
         id="g40500"
         transform="translate(0.84901916)"><g
           id="g39770"
           transform="matrix(0.0029939,0,0,0.0029939,4527.0779,1808.7665)"><g
             stroke="#000000"
             stroke-width="24"
             id="g39756"><circle
               fill="#ffffff"
               r="2376"
               id="circle39752"
               cx="0"
               cy="0" /><path
               fill="none"
               d="m -1643,-1716 155,158 m -550,2364 c 231,231 538,195 826,202 m -524,-2040 c -491,351 -610,1064 -592,1060 m 1216,-1008 c -51,373 84,783 364,1220 m -107,-2289 c 157,-157 466,-267 873,-329 m -528,4112 c -50,132 -37,315 -8,510 m 62,-3883 c 282,32 792,74 1196,303 M 336,1308 c 310,173 649,247 1060,180 M 1056,-520 C 814,-186 522,125 184,416 m 1109,-2119 c -111,-207 -296,-375 -499,-534 m 1146,1281 c 100,3 197,44 290,141 m -438,495 c 158,297 181,718 204,1140"
               id="path39754" /></g><path
             fill="#000000"
             d="m -1624,-1700 c 243,-153 498,-303 856,-424 141,117 253,307 372,492 -288,275 -562,544 -724,756 -274,-25 -410,-2 -740,-60 3,-244 84,-499 236,-764 z m 2904,-40 c 271,248 537,498 724,788 -55,262 -105,553 -180,704 -234,-35 -536,-125 -820,-200 -138,-357 -231,-625 -340,-924 210,-156 417,-296 616,-368 z M -1993,1293 A 2376,2376 0 0 1 -2371,-99 l 59,-7 c 54,342 124,674 311,928 -36,179 -2,323 51,458 z M -796,168 c 365,60 717,120 1060,180 106,333 120,667 156,1000 -263,218 -625,287 -944,420 -372,-240 -523,-508 -736,-768 122,-281 257,-561 464,-832 z m 3013,678 a 2376,2376 0 0 1 -925,1147 l -116,-5 c 84,-127 114,-297 118,-488 232,-111 464,-463 696,-772 86,30 159,72 227,118 z M -70,2373 a 2376,2376 0 0 1 -993,-251 c 199,74 367,143 542,83 53,75 176,134 451,168 z"
             id="path39758" /></g><g
           id="g40169"
           transform="translate(0,1.5739255)"><path
             style="fill:#ffffff;fill-opacity:1;stroke:#000000;stroke-width:0.1;stroke-linecap:butt;stroke-linejoin:miter;stroke-dasharray:none;stroke-opacity:1"
             d="m 4532.517,1807.4003 0.6339,0.5983 -0.9639,0.9575 -0.5951,-0.6469 z"
             id="path34226-4" /><path
             id="path29564-7"
             style="fill:#ffffff;fill-opacity:1;stroke:#000000;stroke-width:0.1;stroke-dasharray:none;stroke-opacity:1"
             d="m 4527.6718,1798.1917 a 5.3595427,5.3595427 0 0 0 -5.3508,5.3653 5.3595427,5.3595427 0 0 0 5.3624,5.3538 5.3595427,5.3595427 0 0 0 3.1261,-1.0123 l 0.058,0.058 c 0.1185,0.1194 0.3101,0.1202 0.4295,0 l 0.7961,-0.7902 c 0.1194,-0.1185 0.1201,-0.3101 0,-0.4295 l -0.063,-0.063 a 5.3595427,5.3595427 0 0 0 1.0086,-3.1239 v -0.012 a 5.3595427,5.3595427 0 0 0 -5.3682,-5.348 z m 0,0.6915 a 4.6679888,4.6679888 0 0 1 4.6755,4.658 v 0.01 a 4.6679888,4.6679888 0 0 1 -4.6655,4.6679 4.6679888,4.6679888 0 0 1 -4.6705,-4.6629 4.6679888,4.6679888 0 0 1 4.6605,-4.6731 z" /><path
             style="fill:#ffffff;fill-opacity:1;stroke:#000000;stroke-width:0.1;stroke-linecap:butt;stroke-linejoin:miter;stroke-dasharray:none;stroke-opacity:1"
             d="m 4533.5326,1808.2412 -1.0189,1.0189 c -0.1103,0.1076 -0.1949,0.218 -0.068,0.3526 l 5.7161,6.2588 c 0.3811,0.4183 0.4818,0.3285 0.5947,0.2608 l 1.4317,-1.3723 c 0.1827,-0.1598 0.2887,-0.3514 -0.082,-0.7411 l -6.3503,-5.8403 c -0.048,-0.038 -0.1245,-0.034 -0.2231,0.063 z"
             id="path34228-6"
             sodipodi:nodetypes="ccccccccc" /></g></g></g></g><style
     type="text/css"
     id="style82399"><![CDATA[
	.st0{fill:#4CAF50;}
	.st1{fill:#2196F3;}
	.st2{fill:#F44336;}
	.st3{fill:#262626;}
	.st4{fill:#FFD54F;}
	.st5{fill-rule:evenodd;clip-rule:evenodd;fill:#262626;}
	.st6{fill-rule:evenodd;clip-rule:evenodd;fill:#FFFFFF;}
]]></style></svg>
